:SAMPLES-PER-SECOND 24
:FULLY-SPECIFIED
:DEGREES
208
root  -6.47595 41.1098 17.5104 -177.871 20.9409 -139.091
RightUpLeg  5.75866 -20.5696 -44.5446
RightLeg  92.2129 -0.323648 8.39304
RightFoot  39.0464 -7.88499 17.2814
RightToes  -1.74623e-010 0 -2.59999e-017
Spine  -6.56516 9.53661 1.21864
Spine1  12.2775 6.07937 0.88028
HEad  2.25987 14.1212 9.04306
LeftShoulder1  1.83352 -2.76975 -22.9426
LeftArm  2.75352 17.6203 -39.987
LeftForeArm  146.401 -76.3466 -135.955
LeftHand  -0.300027 3.19539 15.5031
RightShoulder  3.30181 5.43902 31.033
RightArm  -18.7848 6.77981 21.7291
RightForeArm  164.716 54.3404 165.607
RightHand  -0.69088 -1.12751 -18.7122
LeftUpLeg  -14.3303 26.1438 37.9111
LeftLeg  41.0338 8.82986 8.55319
LeftFoot  9.00995 0.26121 -1.76193
LeftToes  -6.27559e-011 -2.10356e-011 8.24929e-012
209
root  -7.76509 40.6356 18.3812 -173.758 30.5215 -143.341
RightUpLeg  4.94529 -18.0553 -42.0214
RightLeg  87.1626 0.451456 11.1473
RightFoot  39.3335 -7.31091 15.9802
RightToes  -1.74623e-010 0 -2.59999e-017
Spine  -5.26888 9.90211 -0.790357
Spine1  12.0295 5.88918 2.34739
HEad  3.32001 21.8851 4.3058
LeftShoulder1  1.80886 -2.69848 -22.8764
LeftArm  2.37876 13.1053 -37.815
LeftForeArm  146.379 -75.5345 -138.445
LeftHand  -0.263408 3.59105 16.5295
RightShoulder  3.2539 5.46623 30.376
RightArm  -12.0742 15.3503 27.7614
RightForeArm  167.015 57.3836 164.17
RightHand  -0.769759 -0.326257 -17.63
LeftUpLeg  -6.5717 10.288 34.8254
LeftLeg  30.2814 20.1398 12.7244
LeftFoot  0.455956 0.776815 -7.52261
LeftToes  -6.27559e-011 -2.10356e-011 8.24929e-012
210
root  -9.04957 39.7142 19.4623 -167.892 39.5911 -146.545
RightUpLeg  2.53977 -17.9502 -37.534
RightLeg  82.369 1.37494 11.2804
RightFoot  39.6131 -7.87064 17.0445
RightToes  -1.74623e-010 0 -2.59999e-017
Spine  -5.26638 10.2171 -2.54927
Spine1  11.8391 6.51384 2.93621
HEad  0.961186 28.5143 -0.734027
LeftShoulder1  1.82014 -2.7107 -23.0092
LeftArm  0.43433 8.32444 -32.4121
LeftForeArm  148.947 -73.9456 -143.164
LeftHand  -0.191205 4.16091 17.298
RightShoulder  3.35164 5.63903 30.7655
RightArm  -6.96923 20.3542 32.0192
RightForeArm  168.524 58.7639 163.477
RightHand  -0.85541 0.630538 -16.5347
LeftUpLeg  -9.9989 8.61208 28.3579
LeftLeg  29.7668 21.1733 12.8671
LeftFoot  -4.75069 0.544216 -8.64261
LeftToes  -6.27559e-011 -2.10356e-011 8.24929e-012
211
root  -10.3232 39.1667 20.7635 -162.656 49.1185 -148.211
RightUpLeg  1.308 -18.8575 -31.4032
RightLeg  75.1521 2.40048 9.54409
RightFoot  38.1951 -8.06441 17.9807
RightToes  -1.74623e-010 0 -2.59999e-017
Spine  -4.89747 10.8858 -3.07909
Spine1  13.8416 8.20169 1.06104
HEad  -5.46043 34.0419 -6.60942
LeftShoulder1  1.71176 -2.49572 -22.2018
LeftArm  -4.20807 4.34943 -28.6187
LeftForeArm  144.958 -75.0528 -139.57
LeftHand  -0.247993 3.8891 18.5946
RightShoulder  3.29209 5.6769 29.9503
RightArm  -3.38873 20.5281 37.2429
RightForeArm  170.438 60.8476 162.28
RightHand  -0.872169 0.876602 -16.2176
LeftUpLeg  -17.1475 19.1134 23.0206
LeftLeg  33.7455 18.9383 13.5149
LeftFoot  -3.29979 0.338259 -4.63016
LeftToes  -6.27559e-011 -2.10356e-011 8.24929e-012
212
root  -11.6052 38.7443 21.874 -158.746 57.4155 -148.132
RightUpLeg  5.10378 -20.6409 -26.904
RightLeg  62.8816 6.12293 12.3091
RightFoot  36.1038 -8.24912 19.2401
RightToes  -1.74623e-010 0 -2.59999e-017
Spine  -2.59967 10.7454 -1.82674
Spine1  14.1343 9.23294 -1.62958
HEad  -10.1373 39.4412 -12.0757
LeftShoulder1  1.7108 -2.49072 -22.2136
LeftArm  -7.50564 3.48497 -25.4407
LeftForeArm  135.72 -77.2768 -130.005
LeftHand  -0.288097 3.70997 19.4762
RightShoulder  3.19323 5.56751 29.2795
RightArm  0.237425 16.6567 39.9302
RightForeArm  171.323 63.4797 160.397
RightHand  -0.915816 0.987859 -16.7278
LeftUpLeg  -20.5092 20.0083 19.8581
LeftLeg  36.0462 25.7603 19.1026
LeftFoot  -0.592238 0.293194 -3.07906
LeftToes  -6.27559e-011 -2.10356e-011 8.24929e-012
213
root  -12.8349 38.4669 22.7907 -153.208 64.8624 -145.861
RightUpLeg  10.6827 -22.3226 -23.7596
RightLeg  47.6906 11.6138 13.1712
RightFoot  33.4165 -9.01992 22.2751
RightToes  -1.74623e-010 0 -2.59999e-017
Spine  -0.649606 10.1005 -0.713949
Spine1  12.4268 9.47462 -2.36132
HEad  -12.9603 44.5018 -17.3248
LeftShoulder1  1.82953 -2.64915 -23.4811
LeftArm  -8.79599 4.48064 -22.4394
LeftForeArm  129.802 -77.9924 -125.171
LeftHand  -0.231131 4.0986 20.2011
RightShoulder  3.22883 5.58983 29.5921
RightArm  2.78126 12.0916 37.2097
RightForeArm  170.283 64.3565 159.556
RightHand  -0.985432 1.21399 -17.3818
LeftUpLeg  -23.0755 21.6744 17.7482
LeftLeg  35.5487 28.308 20.3347
LeftFoot  1.64975 0.287222 -2.62925
LeftToes  -6.27559e-011 -2.10356e-011 8.24929e-012
